<svg xmlns="http://www.w3.org/2000/svg" viewBox="0 0 1600 900" role="img" aria-labelledby="title desc">
  <title id="title">Developer hero placeholder</title>
  <desc id="desc">Abstract light portfolio banner with blue and yellow artistic shapes.</desc>
  <defs>
    <linearGradient id="bg" x1="0%" y1="0%" x2="100%" y2="100%">
      <stop offset="0%" stop-color="#f7f8fc"/>
      <stop offset="100%" stop-color="#eef2ff"/>
    </linearGradient>
    <radialGradient id="glowBlue" cx="70%" cy="35%" r="30%">
      <stop offset="0%" stop-color="#60a5fa" stop-opacity=".35"/>
      <stop offset="100%" stop-color="#60a5fa" stop-opacity="0"/>
    </radialGradient>
    <radialGradient id="glowYellow" cx="62%" cy="55%" r="24%">
      <stop offset="0%" stop-color="#facc15" stop-opacity=".42"/>
      <stop offset="100%" stop-color="#facc15" stop-opacity="0"/>
    </radialGradient>
  </defs>
  <rect width="1600" height="900" fill="url(#bg)"/>
  <rect x="930" y="90" width="540" height="720" rx="34" fill="#ffffff" fill-opacity=".55" stroke="#cbd5e1" stroke-opacity=".55"/>
  <circle cx="1180" cy="320" r="220" fill="url(#glowBlue)"/>
  <circle cx="1030" cy="520" r="170" fill="url(#glowYellow)"/>
  <g fill="none" stroke-linecap="round">
    <path d="M860 220 L1340 720" stroke="#3b82f6" stroke-opacity=".55" stroke-width="16"/>
    <path d="M900 620 L1310 270" stroke="#fbbf24" stroke-opacity=".6" stroke-width="18"/>
    <path d="M930 340 L1450 610" stroke="#93c5fd" stroke-opacity=".35" stroke-width="12"/>
    <path d="M990 760 L1240 230" stroke="#fde68a" stroke-opacity=".32" stroke-width="12"/>
  </g>
  <g fill="#3b82f6" fill-opacity=".9">
    <circle cx="1310" cy="180" r="22"/>
    <circle cx="1425" cy="270" r="16"/>
    <circle cx="1360" cy="515" r="34"/>
    <circle cx="1260" cy="690" r="20"/>
  </g>
  <g fill="#fbbf24" fill-opacity=".8">
    <circle cx="1115" cy="235" r="18"/>
    <circle cx="980" cy="285" r="14"/>
    <circle cx="1065" cy="710" r="30"/>
    <circle cx="1215" cy="645" r="18"/>
  </g>
  <g transform="translate(1035 220)">
    <circle cx="120" cy="80" r="78" fill="#0f172a" fill-opacity=".08"/>
    <rect x="55" y="160" width="150" height="250" rx="70" fill="#e2e8f0"/>
    <rect x="88" y="130" width="82" height="62" rx="18" fill="#1e293b" fill-opacity=".06"/>
    <text x="120" y="470" text-anchor="middle" font-family="Inter, Arial, sans-serif" font-size="26" fill="#475569">Add hero image</text>
  </g>
</svg>
